<?xml version="1.0" encoding="UTF-8"?>
<!DOCTYPE svg PUBLIC "-//W3C//DTD SVG 1.1//EN" "http://www.w3.org/Graphics/SVG/1.1/DTD/svg11.dtd">
<svg xmlns="http://www.w3.org/2000/svg" version="1.1" width="367px" height="348px" style="shape-rendering:geometricPrecision; text-rendering:geometricPrecision; image-rendering:optimizeQuality; fill-rule:evenodd; clip-rule:evenodd" xmlns:xlink="http://www.w3.org/1999/xlink">
<g><path style="opacity:1" fill="#fc8c35" d="M 156.5,10.5 C 187.202,18.6713 212.869,34.6713 233.5,58.5C 234.433,61.3702 236.1,63.7036 238.5,65.5C 238.427,67.0269 239.094,68.0269 240.5,68.5C 240.427,70.0269 241.094,71.0269 242.5,71.5C 242.833,72.8333 243.167,74.1667 243.5,75.5C 243.5,77.5 244.5,78.5 246.5,78.5C 248.341,80.8485 249.674,83.5152 250.5,86.5C 253.654,96.63 256.988,106.63 260.5,116.5C 261.434,117.568 261.768,118.901 261.5,120.5C 261.201,127.287 261.868,133.954 263.5,140.5C 263.5,147.167 263.5,153.833 263.5,160.5C 264.791,160.737 265.791,160.404 266.5,159.5C 266.5,159.167 266.5,158.833 266.5,158.5C 269.82,151.86 273.153,145.193 276.5,138.5C 278.192,141.231 279.858,143.898 281.5,146.5C 282.338,146.842 282.672,147.508 282.5,148.5C 282.12,150.698 282.787,152.365 284.5,153.5C 284.719,157.8 285.719,161.8 287.5,165.5C 287.621,173.858 287.288,182.191 286.5,190.5C 286.5,192.5 286.5,194.5 286.5,196.5C 284.747,199.146 283.747,202.146 283.5,205.5C 281.787,206.635 281.12,208.302 281.5,210.5C 279.127,212.579 277.794,215.246 277.5,218.5C 277.672,219.492 277.338,220.158 276.5,220.5C 270.585,227.94 264.752,235.606 259,243.5C 245.628,257.869 232.628,272.536 220,287.5C 212.517,298.441 210.683,310.108 214.5,322.5C 214.338,324.527 214.505,326.527 215,328.5C 215.383,329.056 215.883,329.389 216.5,329.5C 217.11,330.391 217.443,331.391 217.5,332.5C 217.179,334.048 216.179,334.715 214.5,334.5C 212.147,333.66 210.147,332.326 208.5,330.5C 207.415,328.413 205.749,327.08 203.5,326.5C 193.205,317.923 185.872,307.257 181.5,294.5C 181.204,292.597 180.537,290.93 179.5,289.5C 177.498,280.981 176.998,272.314 178,263.5C 179.543,258.192 181.71,253.192 184.5,248.5C 185.906,248.027 186.573,247.027 186.5,245.5C 188.016,242.467 190.016,239.8 192.5,237.5C 194.5,236.167 196.167,234.5 197.5,232.5C 199.443,229.529 202.109,227.529 205.5,226.5C 207.027,226.573 208.027,225.906 208.5,224.5C 212.329,222.836 216.329,221.669 220.5,221C 227.856,220.831 235.189,220.331 242.5,219.5C 239.452,215.785 236.119,212.452 232.5,209.5C 232.027,208.094 231.027,207.427 229.5,207.5C 228.508,207.672 227.842,207.338 227.5,206.5C 225.824,204.166 223.491,203.166 220.5,203.5C 206.35,201.18 192.684,202.68 179.5,208C 167.927,213.856 155.927,218.523 143.5,222C 136.545,223.121 129.879,222.288 123.5,219.5C 122.415,217.413 120.749,216.08 118.5,215.5C 115.224,213.053 112.39,210.053 110,206.5C 106.901,201.875 104.568,196.875 103,191.5C 96.7934,226.385 106.96,255.385 133.5,278.5C 132.791,279.404 131.791,279.737 130.5,279.5C 125.579,277.536 120.579,275.87 115.5,274.5C 114.694,273.272 113.694,272.272 112.5,271.5C 112.027,270.094 111.027,269.427 109.5,269.5C 108.167,269.167 106.833,268.833 105.5,268.5C 103.5,266.5 101.5,264.5 99.5,262.5C 98.4154,260.413 96.7488,259.08 94.5,258.5C 81.0865,245.776 72.4198,230.443 68.5,212.5C 67.56,200.204 67.2266,187.871 67.5,175.5C 68.743,172.323 69.743,168.99 70.5,165.5C 73.0778,159.767 75.0778,153.767 76.5,147.5C 82.4911,132.832 90.4911,119.499 100.5,107.5C 102.587,106.415 103.92,104.749 104.5,102.5C 106.587,101.415 107.92,99.7488 108.5,97.5C 108.833,96.5 109.5,95.8333 110.5,95.5C 112.587,94.4154 113.92,92.7488 114.5,90.5C 115.209,89.596 116.209,89.2627 117.5,89.5C 119.713,96.7322 120.047,104.066 118.5,111.5C 116.895,113.308 116.561,115.308 117.5,117.5C 118.522,117.145 119.189,116.478 119.5,115.5C 140.744,95.5849 153.744,71.2515 158.5,42.5C 159.165,39.3509 159.498,36.0175 159.5,32.5C 159.666,27.2449 158.999,22.2449 157.5,17.5C 157.326,15.139 156.993,12.8056 156.5,10.5 Z M 141.5,160.5 C 156.997,159.899 165.664,167.232 167.5,182.5C 165.893,195.441 158.559,202.774 145.5,204.5C 132.264,202.764 124.931,195.264 123.5,182C 125.033,170.976 131.033,163.81 141.5,160.5 Z"/></g>
<g><path style="opacity:0.141" fill="#ffe5d2" d="M 233.5,58.5 C 212.869,34.6713 187.202,18.6713 156.5,10.5C 155.833,10.5 155.5,10.8333 155.5,11.5C 154.662,11.1583 154.328,10.4916 154.5,9.5C 154.735,8.90326 155.235,8.56993 156,8.5C 180.353,14.9228 201.853,26.4228 220.5,43C 225.444,47.7661 229.778,52.9327 233.5,58.5 Z"/></g>
<g><path style="opacity:0.455" fill="#fec192" d="M 156.5,10.5 C 156.993,12.8056 157.326,15.139 157.5,17.5C 156.262,15.7857 155.595,13.7857 155.5,11.5C 155.5,10.8333 155.833,10.5 156.5,10.5 Z"/></g>
<g><path style="opacity:0.569" fill="#fdbb88" d="M 157.5,17.5 C 158.999,22.2449 159.666,27.2449 159.5,32.5C 159.498,36.0175 159.165,39.3509 158.5,42.5C 158.518,34.149 158.185,25.8156 157.5,17.5 Z"/></g>
<g><path style="opacity:0.145" fill="#ffe9d9" d="M 233.5,58.5 C 235.9,60.2964 237.567,62.6298 238.5,65.5C 236.1,63.7036 234.433,61.3702 233.5,58.5 Z"/></g>
<g><path style="opacity:0.224" fill="#fee7d6" d="M 238.5,65.5 C 239.906,65.9731 240.573,66.9731 240.5,68.5C 239.094,68.0269 238.427,67.0269 238.5,65.5 Z"/></g>
<g><path style="opacity:0.192" fill="#feeada" d="M 240.5,68.5 C 241.906,68.9731 242.573,69.9731 242.5,71.5C 241.094,71.0269 240.427,70.0269 240.5,68.5 Z"/></g>
<g><path style="opacity:0.129" fill="#ffeddf" d="M 242.5,71.5 C 244.25,72.6594 245.25,74.326 245.5,76.5C 244.833,76.1667 244.167,75.8333 243.5,75.5C 243.167,74.1667 242.833,72.8333 242.5,71.5 Z"/></g>
<g><path style="opacity:0.749" fill="#ffbe8d" d="M 243.5,75.5 C 244.167,75.8333 244.833,76.1667 245.5,76.5C 246.338,76.8417 246.672,77.5084 246.5,78.5C 244.5,78.5 243.5,77.5 243.5,75.5 Z"/></g>
<g><path style="opacity:0.682" fill="#ffdbc0" d="M 250.5,86.5 C 255.607,95.8206 258.94,105.821 260.5,116.5C 256.988,106.63 253.654,96.63 250.5,86.5 Z"/></g>
<g><path style="opacity:0.176" fill="#ffeee1" d="M 154.5,9.5 C 154.328,10.4916 154.662,11.1583 155.5,11.5C 155.595,13.7857 156.262,15.7857 157.5,17.5C 158.185,25.8156 158.518,34.149 158.5,42.5C 153.744,71.2515 140.744,95.5849 119.5,115.5C 118.566,114.432 118.232,113.099 118.5,111.5C 120.047,104.066 119.713,96.7322 117.5,89.5C 116.209,89.2627 115.209,89.596 114.5,90.5C 112.413,91.5846 111.08,93.2512 110.5,95.5C 109.5,95.8333 108.833,96.5 108.5,97.5C 106.413,98.5846 105.08,100.251 104.5,102.5C 102.413,103.585 101.08,105.251 100.5,107.5C 90.4911,119.499 82.4911,132.832 76.5,147.5C 73.5271,153.085 71.5271,159.085 70.5,165.5C 69.743,168.99 68.743,172.323 67.5,175.5C 68.7294,163.643 71.8961,152.309 77,141.5C 86.7602,121.14 99.5935,102.974 115.5,87C 116.167,86.3333 116.833,86.3333 117.5,87C 120.453,95.2896 121.286,103.79 120,112.5C 143.046,91.0528 155.546,64.5528 157.5,33C 157.328,25.4379 155.994,18.1046 153.5,11C 153.57,10.2352 153.903,9.7352 154.5,9.5 Z"/></g>
<g><path style="opacity:0.871" fill="#fead6e" d="M 114.5,90.5 C 113.92,92.7488 112.587,94.4154 110.5,95.5C 111.08,93.2512 112.413,91.5846 114.5,90.5 Z"/></g>
<g><path style="opacity:0.878" fill="#feaa6a" d="M 108.5,97.5 C 107.92,99.7488 106.587,101.415 104.5,102.5C 105.08,100.251 106.413,98.5846 108.5,97.5 Z"/></g>
<g><path style="opacity:0.882" fill="#fda968" d="M 104.5,102.5 C 103.92,104.749 102.587,106.415 100.5,107.5C 101.08,105.251 102.413,103.585 104.5,102.5 Z"/></g>
<g><path style="opacity:0.737" fill="#feb984" d="M 118.5,111.5 C 118.232,113.099 118.566,114.432 119.5,115.5C 119.189,116.478 118.522,117.145 117.5,117.5C 116.561,115.308 116.895,113.308 118.5,111.5 Z"/></g>
<g><path style="opacity:0.902" fill="#ffbd8b" d="M 261.5,120.5 C 263.561,126.879 264.561,133.546 264.5,140.5C 264.167,140.5 263.833,140.5 263.5,140.5C 261.868,133.954 261.201,127.287 261.5,120.5 Z"/></g>
<g><path style="opacity:0.039" fill="#fff0e5" d="M 281.5,146.5 C 279.858,143.898 278.192,141.231 276.5,138.5C 273.153,145.193 269.82,151.86 266.5,158.5C 265.596,157.791 265.263,156.791 265.5,155.5C 266.885,154.426 268.051,153.093 269,151.5C 270.506,146.325 272.673,141.492 275.5,137C 276.449,136.383 277.282,136.549 278,137.5C 279.741,140.309 280.908,143.309 281.5,146.5 Z"/></g>
<g><path style="opacity:0.965" fill="#feaf73" d="M 76.5,147.5 C 75.0778,153.767 73.0778,159.767 70.5,165.5C 71.5271,159.085 73.5271,153.085 76.5,147.5 Z"/></g>
<g><path style="opacity:0.912" fill="#fca058" d="M 263.5,140.5 C 263.833,140.5 264.167,140.5 264.5,140.5C 263.877,147.255 264.544,153.588 266.5,159.5C 265.791,160.404 264.791,160.737 263.5,160.5C 263.5,153.833 263.5,147.167 263.5,140.5 Z"/></g>
<g><path style="opacity:0.447" fill="#fed4b4" d="M 264.5,140.5 C 265.487,145.305 265.821,150.305 265.5,155.5C 265.263,156.791 265.596,157.791 266.5,158.5C 266.5,158.833 266.5,159.167 266.5,159.5C 264.544,153.588 263.877,147.255 264.5,140.5 Z"/></g>
<g><path style="opacity:0.639" fill="#ffdabd" d="M 282.5,148.5 C 283.931,149.78 284.598,151.447 284.5,153.5C 282.787,152.365 282.12,150.698 282.5,148.5 Z"/></g>
<g><path style="opacity:0.647" fill="#ffdbc0" d="M 284.5,153.5 C 286.416,157.163 287.416,161.163 287.5,165.5C 285.719,161.8 284.719,157.8 284.5,153.5 Z"/></g>
<g><path style="opacity:0.761" fill="#fdb074" d="M 155.5,160.5 C 157.027,160.427 158.027,161.094 158.5,162.5C 156.973,162.573 155.973,161.906 155.5,160.5 Z"/></g>
<g><path style="opacity:0.086" fill="#ffe7d5" d="M 155.5,160.5 C 155.973,161.906 156.973,162.573 158.5,162.5C 158.973,163.906 159.973,164.573 161.5,164.5C 170.752,173.828 171.918,184.162 165,195.5C 163.306,198.358 161.139,200.691 158.5,202.5C 155.843,202.935 153.509,203.935 151.5,205.5C 151.167,205.5 150.833,205.5 150.5,205.5C 146.131,205.533 141.798,205.2 137.5,204.5C 124.008,197.785 119.508,187.118 124,172.5C 131.444,160.298 141.944,156.298 155.5,160.5 Z M 141.5,160.5 C 131.033,163.81 125.033,170.976 123.5,182C 124.931,195.264 132.264,202.764 145.5,204.5C 158.559,202.774 165.893,195.441 167.5,182.5C 165.664,167.232 156.997,159.899 141.5,160.5 Z"/></g>
<g><path style="opacity:0.851" fill="#fdb177" d="M 158.5,162.5 C 160.027,162.427 161.027,163.094 161.5,164.5C 159.973,164.573 158.973,163.906 158.5,162.5 Z"/></g>
<g><path style="opacity:0.678" fill="#ffc294" d="M 287.5,165.5 C 289.028,172.011 289.361,178.678 288.5,185.5C 287.833,187.167 287.167,188.833 286.5,190.5C 287.288,182.191 287.621,173.858 287.5,165.5 Z"/></g>
<g><path style="opacity:0.259" fill="#ffe0c8" d="M 288.5,185.5 C 288.57,189.425 287.903,193.091 286.5,196.5C 286.5,194.5 286.5,192.5 286.5,190.5C 287.167,188.833 287.833,187.167 288.5,185.5 Z"/></g>
<g><path style="opacity:0.969" fill="#fda765" d="M 220.5,203.5 C 223.491,203.166 225.824,204.166 227.5,206.5C 225.883,205.962 224.216,205.629 222.5,205.5C 221.833,204.833 221.167,204.167 220.5,203.5 Z"/></g>
<g><path style="opacity:0.275" fill="#ffe0c9" d="M 286.5,196.5 C 286.253,199.854 285.253,202.854 283.5,205.5C 283.747,202.146 284.747,199.146 286.5,196.5 Z"/></g>
<g><path style="opacity:0.937" fill="#fda765" d="M 158.5,202.5 C 156.824,204.834 154.491,205.834 151.5,205.5C 153.509,203.935 155.843,202.935 158.5,202.5 Z"/></g>
<g><path style="opacity:0.037" fill="#ffede0" d="M 67.5,175.5 C 67.2266,187.871 67.56,200.204 68.5,212.5C 68.5,213.5 68.5,214.5 68.5,215.5C 66.3522,208.291 65.3522,200.791 65.5,193C 65.3905,186.933 66.0571,181.1 67.5,175.5 Z"/></g>
<g><path style="opacity:0.722" fill="#fdb379" d="M 137.5,204.5 C 141.798,205.2 146.131,205.533 150.5,205.5C 149.036,206.16 147.369,206.493 145.5,206.5C 142.514,206.618 139.848,205.952 137.5,204.5 Z"/></g>
<g><path style="opacity:0.482" fill="#ffd6b7" d="M 283.5,205.5 C 283.598,207.553 282.931,209.22 281.5,210.5C 281.12,208.302 281.787,206.635 283.5,205.5 Z"/></g>
<g><path style="opacity:0.792" fill="#fdb074" d="M 229.5,207.5 C 231.027,207.427 232.027,208.094 232.5,209.5C 230.973,209.573 229.973,208.906 229.5,207.5 Z"/></g>
<g><path style="opacity:0.157" fill="#ffe6d4" d="M 281.5,210.5 C 281.206,213.754 279.873,216.421 277.5,218.5C 277.794,215.246 279.127,212.579 281.5,210.5 Z"/></g>
<g><path style="opacity:0.902" fill="#fdac6d" d="M 118.5,215.5 C 120.749,216.08 122.415,217.413 123.5,219.5C 122.833,219.5 122.167,219.5 121.5,219.5C 120.5,218.167 119.5,216.833 118.5,215.5 Z"/></g>
<g><path style="opacity:0.102" fill="#ffe6d2" d="M 118.5,215.5 C 119.5,216.833 120.5,218.167 121.5,219.5C 117.948,217.796 114.781,215.462 112,212.5C 108.562,208.222 105.729,203.556 103.5,198.5C 99.8209,233.463 112.154,261.13 140.5,281.5C 140.833,282.167 141.167,282.833 141.5,283.5C 140.386,284.776 139.386,284.776 138.5,283.5C 139.389,281.975 138.722,280.975 136.5,280.5C 135.5,279.833 134.5,279.167 133.5,278.5C 106.96,255.385 96.7934,226.385 103,191.5C 104.568,196.875 106.901,201.875 110,206.5C 112.39,210.053 115.224,213.053 118.5,215.5 Z"/></g>
<g><path style="opacity:0.094" fill="#ffe1ca" d="M 220.5,203.5 C 221.167,204.167 221.833,204.833 222.5,205.5C 208.025,202.09 194.025,203.59 180.5,210C 168.403,216.254 155.737,220.921 142.5,224C 134.864,224.974 127.864,223.474 121.5,219.5C 122.167,219.5 122.833,219.5 123.5,219.5C 129.879,222.288 136.545,223.121 143.5,222C 155.927,218.523 167.927,213.856 179.5,208C 192.684,202.68 206.35,201.18 220.5,203.5 Z"/></g>
<g><path style="opacity:0.039" fill="#ffebdd" d="M 222.5,205.5 C 224.216,205.629 225.883,205.962 227.5,206.5C 227.842,207.338 228.508,207.672 229.5,207.5C 229.973,208.906 230.973,209.573 232.5,209.5C 236.119,212.452 239.452,215.785 242.5,219.5C 235.189,220.331 227.856,220.831 220.5,221C 216.329,221.669 212.329,222.836 208.5,224.5C 206.973,224.427 205.973,225.094 205.5,226.5C 202.109,227.529 199.443,229.529 197.5,232.5C 194.833,233.167 193.167,234.833 192.5,237.5C 190.016,239.8 188.016,242.467 186.5,245.5C 185.094,245.973 184.427,246.973 184.5,248.5C 181.71,253.192 179.543,258.192 178,263.5C 176.998,272.314 177.498,280.981 179.5,289.5C 179.5,290.833 179.5,292.167 179.5,293.5C 171.486,267.69 177.819,245.857 198.5,228C 210.959,219.972 224.626,216.639 239.5,218C 234.476,212.835 228.81,208.669 222.5,205.5 Z"/></g>
<g><path style="opacity:0.055" fill="#ffead9" d="M 68.5,212.5 C 72.4198,230.443 81.0865,245.776 94.5,258.5C 95.5846,260.587 97.2512,261.92 99.5,262.5C 101.5,264.5 103.5,266.5 105.5,268.5C 88.3499,257.833 76.5165,242.833 70,223.5C 69.1785,220.883 68.6785,218.216 68.5,215.5C 68.5,214.5 68.5,213.5 68.5,212.5 Z"/></g>
<g><path style="opacity:0.855" fill="#feb47b" d="M 208.5,224.5 C 208.027,225.906 207.027,226.573 205.5,226.5C 205.973,225.094 206.973,224.427 208.5,224.5 Z"/></g>
<g><path style="opacity:0.886" fill="#fdab6b" d="M 197.5,232.5 C 196.167,234.5 194.5,236.167 192.5,237.5C 193.167,234.833 194.833,233.167 197.5,232.5 Z"/></g>
<g><path style="opacity:0.749" fill="#fdb074" d="M 186.5,245.5 C 186.573,247.027 185.906,248.027 184.5,248.5C 184.427,246.973 185.094,245.973 186.5,245.5 Z"/></g>
<g><path style="opacity:0.918" fill="#fdad70" d="M 94.5,258.5 C 96.7488,259.08 98.4154,260.413 99.5,262.5C 97.2512,261.92 95.5846,260.587 94.5,258.5 Z"/></g>
<g><path style="opacity:0.757" fill="#fdb074" d="M 109.5,269.5 C 111.027,269.427 112.027,270.094 112.5,271.5C 110.973,271.573 109.973,270.906 109.5,269.5 Z"/></g>
<g><path style="opacity:0.094" fill="#fff0e6" d="M 105.5,268.5 C 106.833,268.833 108.167,269.167 109.5,269.5C 109.973,270.906 110.973,271.573 112.5,271.5C 113.694,272.272 114.694,273.272 115.5,274.5C 111.495,273.502 108.161,271.502 105.5,268.5 Z"/></g>
<g><path style="opacity:0.631" fill="#ffdbc0" d="M 115.5,274.5 C 120.579,275.87 125.579,277.536 130.5,279.5C 132.402,281.151 134.402,281.484 136.5,280.5C 138.722,280.975 139.389,281.975 138.5,283.5C 130.218,281.851 122.551,278.851 115.5,274.5 Z"/></g>
<g><path style="opacity:0.851" fill="#fca763" d="M 133.5,278.5 C 134.5,279.167 135.5,279.833 136.5,280.5C 134.402,281.484 132.402,281.151 130.5,279.5C 131.791,279.737 132.791,279.404 133.5,278.5 Z"/></g>
<g><path style="opacity:0.18" fill="#ffdec5" d="M 276.5,220.5 C 272.433,228.29 267.6,235.624 262,242.5C 248.295,257.203 234.962,272.203 222,287.5C 214.962,298.19 212.462,309.857 214.5,322.5C 210.683,310.108 212.517,298.441 220,287.5C 232.628,272.536 245.628,257.869 259,243.5C 264.752,235.606 270.585,227.94 276.5,220.5 Z"/></g>
<g><path style="opacity:0.341" fill="#fec294" d="M 179.5,289.5 C 180.537,290.93 181.204,292.597 181.5,294.5C 180.833,294.167 180.167,293.833 179.5,293.5C 179.5,292.167 179.5,290.833 179.5,289.5 Z"/></g>
<g><path style="opacity:0.243" fill="#ffe9d9" d="M 179.5,293.5 C 180.167,293.833 180.833,294.167 181.5,294.5C 185.872,307.257 193.205,317.923 203.5,326.5C 204.585,328.587 206.251,329.92 208.5,330.5C 210.147,332.326 212.147,333.66 214.5,334.5C 214.833,335.167 215.167,335.833 215.5,336.5C 197.712,327.043 185.712,312.71 179.5,293.5 Z"/></g>
<g><path style="opacity:0.973" fill="#fda865" d="M 203.5,326.5 C 205.749,327.08 207.415,328.413 208.5,330.5C 206.251,329.92 204.585,328.587 203.5,326.5 Z"/></g>
<g><path style="opacity:0.498" fill="#ffcfab" d="M 214.5,322.5 C 215.537,323.93 216.204,325.597 216.5,327.5C 216.5,328.167 216.5,328.833 216.5,329.5C 215.883,329.389 215.383,329.056 215,328.5C 214.505,326.527 214.338,324.527 214.5,322.5 Z"/></g>
<g><path style="opacity:0.957" fill="#fda865" d="M 217.5,332.5 C 220.577,335.343 219.91,336.677 215.5,336.5C 215.167,335.833 214.833,335.167 214.5,334.5C 216.179,334.715 217.179,334.048 217.5,332.5 Z"/></g>
<g><path style="opacity:0.159" fill="#ffebdb" d="M 216.5,327.5 C 218.957,330.751 220.624,334.418 221.5,338.5C 219.102,338.741 217.102,338.074 215.5,336.5C 219.91,336.677 220.577,335.343 217.5,332.5C 217.443,331.391 217.11,330.391 216.5,329.5C 216.5,328.833 216.5,328.167 216.5,327.5 Z"/></g>
<style>
    @media (prefers-color-scheme:dark){:root{filter:invert(100%)}}
  </style>
</svg>
