<svg version="1.1" id="Layer_1" xmlns="http://www.w3.org/2000/svg" xmlns:xlink="http://www.w3.org/1999/xlink" x="0px" y="0px"
	 width="100%" viewBox="0 0 367 348" enable-background="new 0 0 367 348" xml:space="preserve">
<path fill="#FFFFFE" opacity="1.000000" stroke="none" 
	d="
M245.000000,349.000000 
	C163.333344,349.000000 82.166695,349.000000 1.000033,349.000000 
	C1.000022,233.000031 1.000022,117.000069 1.000011,1.000079 
	C123.333275,1.000053 245.666550,1.000053 367.999878,1.000026 
	C367.999908,116.999916 367.999908,232.999832 367.999939,348.999878 
	C327.166656,349.000000 286.333344,349.000000 245.000000,349.000000 
M127.536568,272.956543 
	C106.580170,250.831406 100.189064,224.413788 104.461685,194.824265 
	C105.524872,196.136475 106.123787,197.613129 106.747070,199.079407 
	C110.608299,208.163132 115.828033,216.048157 124.878349,220.896744 
	C135.941635,226.823776 146.752594,224.800293 157.628067,220.443161 
	C169.370789,215.738525 181.028290,210.778046 192.954346,206.587646 
	C202.716202,203.157700 212.892746,202.601593 222.923218,205.896667 
	C231.611511,208.750824 238.672211,213.902588 244.860458,222.136444 
	C242.284470,222.014847 240.850357,222.051376 239.445618,221.865662 
	C201.181335,216.806534 179.042282,248.877121 179.082199,274.888123 
	C179.125732,303.252167 194.305405,322.951111 217.622696,337.268372 
	C218.464111,337.785004 219.626450,337.779053 221.235168,338.156464 
	C220.513901,336.593842 220.158844,335.680786 219.690079,334.830444 
	C211.931076,320.755585 212.089203,306.357605 220.267990,292.951416 
	C225.932007,283.667267 233.634674,275.608673 240.581284,267.129364 
	C252.172424,252.980652 265.075012,239.737900 275.285492,224.664185 
	C292.671692,198.996933 295.028564,171.448471 280.137390,143.371292 
	C279.573578,142.308273 278.809143,141.351654 277.969818,140.092972 
	C274.531525,147.074020 271.344879,153.544189 268.158234,160.014343 
	C267.652313,159.955261 267.146362,159.896194 266.640442,159.837112 
	C265.862732,125.988113 258.374634,94.168564 238.634308,66.189323 
	C218.598709,37.791576 190.895798,20.801172 156.685272,11.251977 
	C162.752640,32.049782 161.054779,51.314240 153.500809,70.036034 
	C146.104660,88.366692 134.752090,103.935692 119.316193,117.975922 
	C121.549934,98.844055 121.271309,95.246643 117.445518,90.817924 
	C117.032089,91.061089 116.517952,91.226257 116.197830,91.571373 
	C96.121552,113.215218 79.440063,137.065063 72.227631,166.089035 
	C63.427242,201.503189 68.481041,234.000458 96.114548,260.340790 
	C108.259636,271.917511 123.024658,278.995331 139.244858,283.287720 
	C135.511078,280.012177 131.777283,276.736633 127.536568,272.956543 
z"/>
<path fill="#FC8D36" opacity="1.000000" stroke="none" 
	d="
M127.790024,273.208801 
	C131.777283,276.736633 135.511078,280.012177 139.244858,283.287720 
	C123.024658,278.995331 108.259636,271.917511 96.114548,260.340790 
	C68.481041,234.000458 63.427242,201.503189 72.227631,166.089035 
	C79.440063,137.065063 96.121552,113.215218 116.197830,91.571373 
	C116.517952,91.226257 117.032089,91.061089 117.445518,90.817924 
	C121.271309,95.246643 121.549934,98.844055 119.316193,117.975922 
	C134.752090,103.935692 146.104660,88.366692 153.500809,70.036034 
	C161.054779,51.314240 162.752640,32.049782 156.685272,11.251977 
	C190.895798,20.801172 218.598709,37.791576 238.634308,66.189323 
	C258.374634,94.168564 265.862732,125.988113 266.640442,159.837112 
	C267.146362,159.896194 267.652313,159.955261 268.158234,160.014343 
	C271.344879,153.544189 274.531525,147.074020 277.969818,140.092972 
	C278.809143,141.351654 279.573578,142.308273 280.137390,143.371292 
	C295.028564,171.448471 292.671692,198.996933 275.285492,224.664185 
	C265.075012,239.737900 252.172424,252.980652 240.581284,267.129364 
	C233.634674,275.608673 225.932007,283.667267 220.267990,292.951416 
	C212.089203,306.357605 211.931076,320.755585 219.690079,334.830444 
	C220.158844,335.680786 220.513901,336.593842 221.235168,338.156464 
	C219.626450,337.779053 218.464111,337.785004 217.622696,337.268372 
	C194.305405,322.951111 179.125732,303.252167 179.082199,274.888123 
	C179.042282,248.877121 201.181335,216.806534 239.445618,221.865662 
	C240.850357,222.051376 242.284470,222.014847 244.860458,222.136444 
	C238.672211,213.902588 231.611511,208.750824 222.923218,205.896667 
	C212.892746,202.601593 202.716202,203.157700 192.954346,206.587646 
	C181.028290,210.778046 169.370789,215.738525 157.628067,220.443161 
	C146.752594,224.800293 135.941635,226.823776 124.878349,220.896744 
	C115.828033,216.048157 110.608299,208.163132 106.747070,199.079407 
	C106.123787,197.613129 105.524872,196.136475 104.461685,194.824265 
	C100.189064,224.413788 106.580170,250.831406 127.790024,273.208801 
M168.511932,193.839645 
	C173.686447,181.054230 168.948730,168.038315 157.177887,162.701675 
	C145.363922,157.345490 131.620712,162.456131 126.056953,174.274490 
	C120.936668,185.150848 125.786835,199.112961 136.606674,204.643845 
	C148.296066,210.619247 161.497574,206.379364 168.511932,193.839645 
z"/>
<path fill="#FFFCFA" opacity="1.000000" stroke="none" 
	d="
M168.333954,194.175430 
	C161.497574,206.379364 148.296066,210.619247 136.606674,204.643845 
	C125.786835,199.112961 120.936668,185.150848 126.056953,174.274490 
	C131.620712,162.456131 145.363922,157.345490 157.177887,162.701675 
	C168.948730,168.038315 173.686447,181.054230 168.333954,194.175430 
z"/>
</svg>